<svg width="30" height="30" viewBox="0 0 30 30" fill="none" xmlns="http://www.w3.org/2000/svg">
<path d="M28.75 21.25H28.4375V19.6875C28.4375 18.5875 27.9187 17.6062 27.1062 16.9812C27.3625 15.9375 27.5 14.85 27.5 13.75C27.5 6.16875 21.3313 0 13.75 0C6.16875 0 0 6.16875 0 13.75C0 21.3313 6.16875 27.5 13.75 27.5C15.9313 27.5 18.0688 26.9813 20 25.9938V28.75C20 29.4375 20.5625 30 21.25 30H28.75C29.4375 30 30 29.4375 30 28.75V22.5C30 21.8125 29.4375 21.25 28.75 21.25ZM27.1875 21.25H22.8125V19.6875C22.8125 18.4813 23.7938 17.5 25 17.5C26.2062 17.5 27.1875 18.4813 27.1875 19.6875V21.25ZM20 22.5V24.5688C18.1 25.6625 15.95 26.25 13.75 26.25C6.85625 26.25 1.25 20.6437 1.25 13.75C1.25 6.85625 6.85625 1.25 13.75 1.25C20.6437 1.25 26.25 6.85625 26.25 13.75C26.25 14.65 26.15 15.5312 25.9687 16.3937C25.6562 16.3 25.3375 16.25 25 16.25C23.1063 16.25 21.5625 17.7938 21.5625 19.6875V21.25H21.25C20.5625 21.25 20 21.8125 20 22.5ZM21.25 28.75V22.5H22.1875H27.8125H28.75V28.75H21.25Z" fill="#E24725"/>
</svg>
